# xmcd
#
# Track frame offsets:
#	150
#	19115
#	31549
#	50504
#	62075
#	74203
#	92968
#	105701
#	121072
#	139088
#	151451
#	165643
#	186208
#	199042
#
# Disc length: 2855
#
# Revision: 1
# Processed by: cddbd v1.5.1PL0 Copyright (c) Steve Scherf et al.
# Submitted via: EasyCDDAExtractor 5.0.5.1
# Normalized: r0:DSETVAR1
#
DISCID=c10b250e
DTITLE=Various Artist - Mr Music Country  08  2003
DYEAR=1900
DGENRE=Country
TTITLE0=Tompall Glaser - T for Texas
TTITLE1=Winston Stroup - Bob Wills is still the king
TTITLE2=Jeannie Kendall - The color of her eyes
TTITLE3=Mike Bella - I've just destroyed the world
TTITLE4=Billy Keeble - No good good-byes
TTITLE5=Arkey Blue and Sammi Smith - So blue, so blue
TTITLE6=Billy Ray Reynolds and Merle Haggard - Two step me
TTITLE7=Tex Ritter - Red River Valley
TTITLE8=Johnny Rodriguez - Corpus Christy Bay
TTITLE9=Richard Hailey - Texas honky tonkin'
TTITLE10=Billy Joe Shaver - Honey Chile
TTITLE11=Dale Watson - Deep in the heart
TTITLE12=Leona Williams - Don't sing me no songs about Texas
TTITLE13=Waylon Jennings - Bob Wills is still the king
EXTD=
EXTT0=
EXTT1=
EXTT2=
EXTT3=
EXTT4=
EXTT5=
EXTT6=
EXTT7=
EXTT8=
EXTT9=
EXTT10=
EXTT11=
EXTT12=
EXTT13=
PLAYORDER=
